<?xml version="1.0" encoding="UTF-8" standalone="no"?>
<!DOCTYPE svg PUBLIC "-//W3C//DTD SVG 1.1//EN"
 "http://www.w3.org/Graphics/SVG/1.1/DTD/svg11.dtd">
<!-- Generated by graphviz version 2.36.0 (20140111.2315)
 -->
<!-- Title: main Pages: 1 -->
<svg width="337pt" height="1438pt"
 viewBox="0.00 0.00 337.00 1438.00" xmlns="http://www.w3.org/2000/svg" xmlns:xlink="http://www.w3.org/1999/xlink">
<g id="graph0" class="graph" transform="scale(1 1) rotate(0) translate(4 1434)">
<title>main</title>
<polygon fill="white" stroke="none" points="-4,4 -4,-1434 333,-1434 333,4 -4,4"/>
<!-- title -->
<g id="node1" class="node"><title>title</title>
<path fill="none" stroke="green" stroke-width="2" d="M269,-1430C269,-1430 233,-1430 233,-1430 227,-1430 221,-1424 221,-1418 221,-1418 221,-1406 221,-1406 221,-1400 227,-1394 233,-1394 233,-1394 269,-1394 269,-1394 275,-1394 281,-1400 281,-1406 281,-1406 281,-1418 281,-1418 281,-1424 275,-1430 269,-1430"/>
<text text-anchor="middle" x="251" y="-1408.3" font-family="Times,serif" font-size="14.00">&lt;main&gt;</text>
</g>
<!-- 0 -->
<g id="node2" class="node"><title>0</title>
<polygon fill="none" stroke="black" points="173,-1319 173,-1355 329,-1355 329,-1319 173,-1319"/>
<text text-anchor="middle" x="185" y="-1333.3" font-family="Times,serif" font-size="14.00">0</text>
<polyline fill="none" stroke="black" points="197,-1319 197,-1355 "/>
<text text-anchor="middle" x="251" y="-1333.3" font-family="Times,serif" font-size="14.00">LOAD_CONST</text>
<polyline fill="none" stroke="black" points="305,-1319 305,-1355 "/>
<text text-anchor="middle" x="317" y="-1333.3" font-family="Times,serif" font-size="14.00">0</text>
</g>
<!-- title&#45;&gt;0 -->
<g id="edge1" class="edge"><title>title&#45;&gt;0</title>
<path fill="none" stroke="black" d="M251,-1393.7C251,-1385.25 251,-1374.87 251,-1365.37"/>
<polygon fill="black" stroke="black" points="254.5,-1365.18 251,-1355.18 247.5,-1365.18 254.5,-1365.18"/>
</g>
<!-- 1 -->
<g id="node3" class="node"><title>1</title>
<polygon fill="none" stroke="black" points="172.5,-1243 172.5,-1279 329.5,-1279 329.5,-1243 172.5,-1243"/>
<text text-anchor="middle" x="184.5" y="-1257.3" font-family="Times,serif" font-size="14.00">1</text>
<polyline fill="none" stroke="black" points="196.5,-1243 196.5,-1279 "/>
<text text-anchor="middle" x="251" y="-1257.3" font-family="Times,serif" font-size="14.00">STORE_NAME</text>
<polyline fill="none" stroke="black" points="305.5,-1243 305.5,-1279 "/>
<text text-anchor="middle" x="317.5" y="-1257.3" font-family="Times,serif" font-size="14.00">0</text>
</g>
<!-- 0&#45;&gt;1 -->
<g id="edge2" class="edge"><title>0&#45;&gt;1</title>
<path fill="none" stroke="black" d="M251,-1318.84C251,-1310.06 251,-1299.16 251,-1289.27"/>
<polygon fill="black" stroke="black" points="254.5,-1289.07 251,-1279.07 247.5,-1289.07 254.5,-1289.07"/>
</g>
<!-- 2 -->
<g id="node4" class="node"><title>2</title>
<polygon fill="none" stroke="black" points="187,-1167 187,-1203 315,-1203 315,-1167 187,-1167"/>
<text text-anchor="middle" x="199" y="-1181.3" font-family="Times,serif" font-size="14.00">2</text>
<polyline fill="none" stroke="black" points="211,-1167 211,-1203 "/>
<text text-anchor="middle" x="263" y="-1181.3" font-family="Times,serif" font-size="14.00">START_LOOP</text>
</g>
<!-- 1&#45;&gt;2 -->
<g id="edge3" class="edge"><title>1&#45;&gt;2</title>
<path fill="none" stroke="black" d="M251,-1242.84C251,-1234.06 251,-1223.16 251,-1213.27"/>
<polygon fill="black" stroke="black" points="254.5,-1213.07 251,-1203.07 247.5,-1213.07 254.5,-1213.07"/>
</g>
<!-- 3 -->
<g id="node5" class="node"><title>3</title>
<polygon fill="none" stroke="black" points="103,-1091 103,-1127 255,-1127 255,-1091 103,-1091"/>
<text text-anchor="middle" x="115" y="-1105.3" font-family="Times,serif" font-size="14.00">3</text>
<polyline fill="none" stroke="black" points="127,-1091 127,-1127 "/>
<text text-anchor="middle" x="179" y="-1105.3" font-family="Times,serif" font-size="14.00">LOAD_NAME</text>
<polyline fill="none" stroke="black" points="231,-1091 231,-1127 "/>
<text text-anchor="middle" x="243" y="-1105.3" font-family="Times,serif" font-size="14.00">0</text>
</g>
<!-- 2&#45;&gt;3 -->
<g id="edge4" class="edge"><title>2&#45;&gt;3</title>
<path fill="none" stroke="black" d="M234.301,-1166.84C224.941,-1157.22 213.11,-1145.06 202.795,-1134.46"/>
<polygon fill="black" stroke="black" points="205.091,-1131.8 195.609,-1127.07 200.074,-1136.68 205.091,-1131.8"/>
</g>
<!-- 4 -->
<g id="node6" class="node"><title>4</title>
<polygon fill="none" stroke="black" points="97,-1015 97,-1051 253,-1051 253,-1015 97,-1015"/>
<text text-anchor="middle" x="109" y="-1029.3" font-family="Times,serif" font-size="14.00">4</text>
<polyline fill="none" stroke="black" points="121,-1015 121,-1051 "/>
<text text-anchor="middle" x="175" y="-1029.3" font-family="Times,serif" font-size="14.00">LOAD_CONST</text>
<polyline fill="none" stroke="black" points="229,-1015 229,-1051 "/>
<text text-anchor="middle" x="241" y="-1029.3" font-family="Times,serif" font-size="14.00">1</text>
</g>
<!-- 3&#45;&gt;4 -->
<g id="edge5" class="edge"><title>3&#45;&gt;4</title>
<path fill="none" stroke="black" d="M178.072,-1090.84C177.598,-1082.06 177.009,-1071.16 176.474,-1061.27"/>
<polygon fill="black" stroke="black" points="179.957,-1060.87 175.923,-1051.07 172.968,-1061.24 179.957,-1060.87"/>
</g>
<!-- 5 -->
<g id="node7" class="node"><title>5</title>
<polygon fill="none" stroke="black" points="74,-939 74,-975 254,-975 254,-939 74,-939"/>
<text text-anchor="middle" x="86" y="-953.3" font-family="Times,serif" font-size="14.00">5</text>
<polyline fill="none" stroke="black" points="98,-939 98,-975 "/>
<text text-anchor="middle" x="176" y="-953.3" font-family="Times,serif" font-size="14.00">BINARY_LESS_THAN</text>
</g>
<!-- 4&#45;&gt;5 -->
<g id="edge6" class="edge"><title>4&#45;&gt;5</title>
<path fill="none" stroke="black" d="M172.449,-1014.84C171.144,-1006.06 169.524,-995.163 168.053,-985.267"/>
<polygon fill="black" stroke="black" points="171.47,-984.447 166.537,-975.07 164.546,-985.476 171.47,-984.447"/>
</g>
<!-- 6 -->
<g id="node8" class="node"><title>6</title>
<polygon fill="none" stroke="black" points="69.5,-863 69.5,-899 246.5,-899 246.5,-863 69.5,-863"/>
<text text-anchor="middle" x="81.5" y="-877.3" font-family="Times,serif" font-size="14.00">6</text>
<polyline fill="none" stroke="black" points="93.5,-863 93.5,-899 "/>
<text text-anchor="middle" x="154.5" y="-877.3" font-family="Times,serif" font-size="14.00">JUMP_IF_FALSE</text>
<polyline fill="none" stroke="black" points="215.5,-863 215.5,-899 "/>
<text text-anchor="middle" x="231" y="-877.3" font-family="Times,serif" font-size="14.00">41</text>
</g>
<!-- 5&#45;&gt;6 -->
<g id="edge7" class="edge"><title>5&#45;&gt;6</title>
<path fill="none" stroke="black" d="M162.608,-938.837C161.897,-930.058 161.013,-919.163 160.211,-909.267"/>
<polygon fill="black" stroke="black" points="163.681,-908.754 159.384,-899.07 156.704,-909.32 163.681,-908.754"/>
</g>
<!-- 17 -->
<g id="node9" class="node"><title>17</title>
<polygon fill="none" stroke="black" points="0,-75 0,-111 120,-111 120,-75 0,-75"/>
<text text-anchor="middle" x="15.5" y="-89.3" font-family="Times,serif" font-size="14.00">17</text>
<polyline fill="none" stroke="black" points="31,-75 31,-111 "/>
<text text-anchor="middle" x="75.5" y="-89.3" font-family="Times,serif" font-size="14.00">END_LOOP</text>
</g>
<!-- 6&#45;&gt;17 -->
<g id="edge8" class="edge"><title>6&#45;&gt;17</title>
<path fill="none" stroke="green" d="M97.9522,-862.852C65.4995,-849.516 32,-827.22 32,-792 32,-792 32,-792 32,-168 32,-151.531 38.1419,-134.256 44.6726,-120.543"/>
<polygon fill="green" stroke="green" points="47.987,-121.748 49.4144,-111.25 41.7518,-118.566 47.987,-121.748"/>
<text text-anchor="middle" x="43.5" y="-483.3" font-family="Times,serif" font-size="14.00"> yes</text>
</g>
<!-- 7 -->
<g id="node10" class="node"><title>7</title>
<polygon fill="none" stroke="black" points="82,-773 82,-809 234,-809 234,-773 82,-773"/>
<text text-anchor="middle" x="94" y="-787.3" font-family="Times,serif" font-size="14.00">7</text>
<polyline fill="none" stroke="black" points="106,-773 106,-809 "/>
<text text-anchor="middle" x="158" y="-787.3" font-family="Times,serif" font-size="14.00">LOAD_NAME</text>
<polyline fill="none" stroke="black" points="210,-773 210,-809 "/>
<text text-anchor="middle" x="222" y="-787.3" font-family="Times,serif" font-size="14.00">0</text>
</g>
<!-- 6&#45;&gt;7 -->
<g id="edge9" class="edge"><title>6&#45;&gt;7</title>
<path fill="none" stroke="red" d="M158,-862.614C158,-850.24 158,-833.369 158,-819.22"/>
<polygon fill="red" stroke="red" points="161.5,-819.05 158,-809.05 154.5,-819.05 161.5,-819.05"/>
<text text-anchor="middle" x="167" y="-832.3" font-family="Times,serif" font-size="14.00"> no</text>
</g>
<!-- 18 -->
<g id="node20" class="node"><title>18</title>
<path fill="none" stroke="red" stroke-width="2" d="M75,-36C75,-36 45,-36 45,-36 39,-36 33,-30 33,-24 33,-24 33,-12 33,-12 33,-6 39,-0 45,-0 45,-0 75,-0 75,-0 81,-0 87,-6 87,-12 87,-12 87,-24 87,-24 87,-30 81,-36 75,-36"/>
<text text-anchor="middle" x="60" y="-14.3" font-family="Times,serif" font-size="14.00">end</text>
</g>
<!-- 17&#45;&gt;18 -->
<g id="edge21" class="edge"><title>17&#45;&gt;18</title>
<path fill="none" stroke="black" d="M60,-74.7C60,-66.2452 60,-55.8688 60,-46.3732"/>
<polygon fill="black" stroke="black" points="63.5001,-46.1758 60,-36.1758 56.5001,-46.1758 63.5001,-46.1758"/>
</g>
<!-- 8 -->
<g id="node11" class="node"><title>8</title>
<polygon fill="none" stroke="black" points="80,-697 80,-733 236,-733 236,-697 80,-697"/>
<text text-anchor="middle" x="92" y="-711.3" font-family="Times,serif" font-size="14.00">8</text>
<polyline fill="none" stroke="black" points="104,-697 104,-733 "/>
<text text-anchor="middle" x="158" y="-711.3" font-family="Times,serif" font-size="14.00">LOAD_CONST</text>
<polyline fill="none" stroke="black" points="212,-697 212,-733 "/>
<text text-anchor="middle" x="224" y="-711.3" font-family="Times,serif" font-size="14.00">2</text>
</g>
<!-- 7&#45;&gt;8 -->
<g id="edge10" class="edge"><title>7&#45;&gt;8</title>
<path fill="none" stroke="black" d="M158,-772.837C158,-764.058 158,-753.163 158,-743.267"/>
<polygon fill="black" stroke="black" points="161.5,-743.07 158,-733.07 154.5,-743.07 161.5,-743.07"/>
</g>
<!-- 9 -->
<g id="node12" class="node"><title>9</title>
<polygon fill="none" stroke="black" points="92,-621 92,-657 224,-657 224,-621 92,-621"/>
<text text-anchor="middle" x="104" y="-635.3" font-family="Times,serif" font-size="14.00">9</text>
<polyline fill="none" stroke="black" points="116,-621 116,-657 "/>
<text text-anchor="middle" x="170" y="-635.3" font-family="Times,serif" font-size="14.00">BINARY_ADD</text>
</g>
<!-- 8&#45;&gt;9 -->
<g id="edge11" class="edge"><title>8&#45;&gt;9</title>
<path fill="none" stroke="black" d="M158,-696.837C158,-688.058 158,-677.163 158,-667.267"/>
<polygon fill="black" stroke="black" points="161.5,-667.07 158,-657.07 154.5,-667.07 161.5,-667.07"/>
</g>
<!-- 10 -->
<g id="node13" class="node"><title>10</title>
<polygon fill="none" stroke="black" points="76,-545 76,-581 240,-581 240,-545 76,-545"/>
<text text-anchor="middle" x="91.5" y="-559.3" font-family="Times,serif" font-size="14.00">10</text>
<polyline fill="none" stroke="black" points="107,-545 107,-581 "/>
<text text-anchor="middle" x="161.5" y="-559.3" font-family="Times,serif" font-size="14.00">STORE_NAME</text>
<polyline fill="none" stroke="black" points="216,-545 216,-581 "/>
<text text-anchor="middle" x="228" y="-559.3" font-family="Times,serif" font-size="14.00">1</text>
</g>
<!-- 9&#45;&gt;10 -->
<g id="edge12" class="edge"><title>9&#45;&gt;10</title>
<path fill="none" stroke="black" d="M158,-620.837C158,-612.058 158,-601.163 158,-591.267"/>
<polygon fill="black" stroke="black" points="161.5,-591.07 158,-581.07 154.5,-591.07 161.5,-591.07"/>
</g>
<!-- 11 -->
<g id="node14" class="node"><title>11</title>
<polygon fill="none" stroke="black" points="78.5,-469 78.5,-505 237.5,-505 237.5,-469 78.5,-469"/>
<text text-anchor="middle" x="94" y="-483.3" font-family="Times,serif" font-size="14.00">11</text>
<polyline fill="none" stroke="black" points="109.5,-469 109.5,-505 "/>
<text text-anchor="middle" x="161.5" y="-483.3" font-family="Times,serif" font-size="14.00">LOAD_NAME</text>
<polyline fill="none" stroke="black" points="213.5,-469 213.5,-505 "/>
<text text-anchor="middle" x="225.5" y="-483.3" font-family="Times,serif" font-size="14.00">0</text>
</g>
<!-- 10&#45;&gt;11 -->
<g id="edge13" class="edge"><title>10&#45;&gt;11</title>
<path fill="none" stroke="black" d="M158,-544.837C158,-536.058 158,-525.163 158,-515.267"/>
<polygon fill="black" stroke="black" points="161.5,-515.07 158,-505.07 154.5,-515.07 161.5,-515.07"/>
</g>
<!-- 12 -->
<g id="node15" class="node"><title>12</title>
<polygon fill="none" stroke="black" points="76.5,-393 76.5,-429 239.5,-429 239.5,-393 76.5,-393"/>
<text text-anchor="middle" x="92" y="-407.3" font-family="Times,serif" font-size="14.00">12</text>
<polyline fill="none" stroke="black" points="107.5,-393 107.5,-429 "/>
<text text-anchor="middle" x="161.5" y="-407.3" font-family="Times,serif" font-size="14.00">LOAD_CONST</text>
<polyline fill="none" stroke="black" points="215.5,-393 215.5,-429 "/>
<text text-anchor="middle" x="227.5" y="-407.3" font-family="Times,serif" font-size="14.00">3</text>
</g>
<!-- 11&#45;&gt;12 -->
<g id="edge14" class="edge"><title>11&#45;&gt;12</title>
<path fill="none" stroke="black" d="M158,-468.837C158,-460.058 158,-449.163 158,-439.267"/>
<polygon fill="black" stroke="black" points="161.5,-439.07 158,-429.07 154.5,-439.07 161.5,-439.07"/>
</g>
<!-- 13 -->
<g id="node16" class="node"><title>13</title>
<polygon fill="none" stroke="black" points="60.5,-317 60.5,-353 255.5,-353 255.5,-317 60.5,-317"/>
<text text-anchor="middle" x="76" y="-331.3" font-family="Times,serif" font-size="14.00">13</text>
<polyline fill="none" stroke="black" points="91.5,-317 91.5,-353 "/>
<text text-anchor="middle" x="173.5" y="-331.3" font-family="Times,serif" font-size="14.00">BINARY_MORE_THAN</text>
</g>
<!-- 12&#45;&gt;13 -->
<g id="edge15" class="edge"><title>12&#45;&gt;13</title>
<path fill="none" stroke="black" d="M158,-392.837C158,-384.058 158,-373.163 158,-363.267"/>
<polygon fill="black" stroke="black" points="161.5,-363.07 158,-353.07 154.5,-363.07 161.5,-363.07"/>
</g>
<!-- 14 -->
<g id="node17" class="node"><title>14</title>
<polygon fill="none" stroke="black" points="66,-241 66,-277 250,-277 250,-241 66,-241"/>
<text text-anchor="middle" x="81.5" y="-255.3" font-family="Times,serif" font-size="14.00">14</text>
<polyline fill="none" stroke="black" points="97,-241 97,-277 "/>
<text text-anchor="middle" x="158" y="-255.3" font-family="Times,serif" font-size="14.00">JUMP_IF_FALSE</text>
<polyline fill="none" stroke="black" points="219,-241 219,-277 "/>
<text text-anchor="middle" x="234.5" y="-255.3" font-family="Times,serif" font-size="14.00">38</text>
</g>
<!-- 13&#45;&gt;14 -->
<g id="edge16" class="edge"><title>13&#45;&gt;14</title>
<path fill="none" stroke="black" d="M158,-316.837C158,-308.058 158,-297.163 158,-287.267"/>
<polygon fill="black" stroke="black" points="161.5,-287.07 158,-277.07 154.5,-287.07 161.5,-287.07"/>
</g>
<!-- 16 -->
<g id="node18" class="node"><title>16</title>
<polygon fill="none" stroke="black" points="207.5,-151 207.5,-187 314.5,-187 314.5,-151 207.5,-151"/>
<text text-anchor="middle" x="223" y="-165.3" font-family="Times,serif" font-size="14.00">16</text>
<polyline fill="none" stroke="black" points="238.5,-151 238.5,-187 "/>
<text text-anchor="middle" x="264.5" y="-165.3" font-family="Times,serif" font-size="14.00">JUMP</text>
<polyline fill="none" stroke="black" points="290.5,-151 290.5,-187 "/>
<text text-anchor="middle" x="302.5" y="-165.3" font-family="Times,serif" font-size="14.00">6</text>
</g>
<!-- 14&#45;&gt;16 -->
<g id="edge17" class="edge"><title>14&#45;&gt;16</title>
<path fill="none" stroke="green" d="M178.349,-240.614C193.968,-227.27 215.71,-208.694 232.974,-193.944"/>
<polygon fill="green" stroke="green" points="235.714,-196.207 241.043,-187.05 231.167,-190.885 235.714,-196.207"/>
<text text-anchor="middle" x="230.5" y="-210.3" font-family="Times,serif" font-size="14.00"> yes</text>
</g>
<!-- 15 -->
<g id="node19" class="node"><title>15</title>
<polygon fill="none" stroke="black" points="71.5,-151 71.5,-187 166.5,-187 166.5,-151 71.5,-151"/>
<text text-anchor="middle" x="87" y="-165.3" font-family="Times,serif" font-size="14.00">15</text>
<polyline fill="none" stroke="black" points="102.5,-151 102.5,-187 "/>
<text text-anchor="middle" x="134.5" y="-165.3" font-family="Times,serif" font-size="14.00">BREAK</text>
</g>
<!-- 14&#45;&gt;15 -->
<g id="edge18" class="edge"><title>14&#45;&gt;15</title>
<path fill="none" stroke="red" d="M150.295,-240.614C144.704,-227.998 137.04,-210.705 130.696,-196.391"/>
<polygon fill="red" stroke="red" points="133.808,-194.775 126.556,-187.05 127.408,-197.611 133.808,-194.775"/>
<text text-anchor="middle" x="151" y="-210.3" font-family="Times,serif" font-size="14.00"> no</text>
</g>
<!-- 16&#45;&gt;2 -->
<g id="edge20" class="edge"><title>16&#45;&gt;2</title>
<path fill="none" stroke="black" d="M268.277,-187.185C275.016,-204.676 284,-232.734 284,-258 284,-1110 284,-1110 284,-1110 284,-1126.92 276.719,-1144.27 268.997,-1157.91"/>
<polygon fill="black" stroke="black" points="265.851,-1156.35 263.664,-1166.72 271.839,-1159.98 265.851,-1156.35"/>
</g>
<!-- 15&#45;&gt;17 -->
<g id="edge19" class="edge"><title>15&#45;&gt;17</title>
<path fill="none" stroke="black" d="M105.316,-150.837C97.7949,-141.404 88.3266,-129.528 79.9921,-119.075"/>
<polygon fill="black" stroke="black" points="82.5806,-116.707 73.6099,-111.07 77.1073,-121.071 82.5806,-116.707"/>
</g>
</g>
</svg>
